<svg width="209" height="70" viewBox="0 0 209 70" fill="none" xmlns="http://www.w3.org/2000/svg">
<path d="M0 0H191C200.941 0 209 8.05888 209 18V70H0V0Z" fill="black"/>
<g clip-path="url(#clip0_0_412)">
<path d="M41.156 42V30.1H43.332V40.3H48.602V42H41.156ZM53.7563 42.204C52.9063 42.204 52.1526 42.0227 51.4953 41.66C50.8379 41.2973 50.3223 40.7873 49.9483 40.13C49.5743 39.4727 49.3873 38.7133 49.3873 37.852C49.3873 36.9793 49.5686 36.203 49.9313 35.523C50.3053 34.843 50.8153 34.316 51.4613 33.942C52.1186 33.5567 52.8893 33.364 53.7733 33.364C54.6006 33.364 55.3316 33.5453 55.9663 33.908C56.6009 34.2707 57.0939 34.7693 57.4453 35.404C57.8079 36.0273 57.9893 36.7243 57.9893 37.495C57.9893 37.6197 57.9836 37.75 57.9723 37.886C57.9723 38.022 57.9666 38.1637 57.9553 38.311H51.5463C51.5916 38.9683 51.8183 39.484 52.2263 39.858C52.6456 40.232 53.1499 40.419 53.7393 40.419C54.1813 40.419 54.5496 40.3227 54.8443 40.13C55.1503 39.926 55.3769 39.6653 55.5243 39.348H57.7343C57.5756 39.8807 57.3093 40.368 56.9353 40.81C56.5726 41.2407 56.1193 41.5807 55.5753 41.83C55.0426 42.0793 54.4363 42.204 53.7563 42.204ZM53.7733 35.132C53.2406 35.132 52.7703 35.285 52.3623 35.591C51.9543 35.8857 51.6936 36.339 51.5803 36.951H55.7793C55.7453 36.3957 55.5413 35.9537 55.1673 35.625C54.7933 35.2963 54.3286 35.132 53.7733 35.132ZM62.2992 42.204C61.5739 42.204 60.9789 42.0907 60.5142 41.864C60.0496 41.626 59.7039 41.3143 59.4772 40.929C59.2506 40.5437 59.1372 40.1187 59.1372 39.654C59.1372 38.872 59.4432 38.2373 60.0552 37.75C60.6672 37.2627 61.5852 37.019 62.8092 37.019H64.9512V36.815C64.9512 36.237 64.7869 35.812 64.4582 35.54C64.1296 35.268 63.7216 35.132 63.2342 35.132C62.7922 35.132 62.4069 35.2397 62.0782 35.455C61.7496 35.659 61.5456 35.965 61.4662 36.373H59.3412C59.3979 35.761 59.6019 35.2283 59.9532 34.775C60.3159 34.3217 60.7806 33.976 61.3472 33.738C61.9139 33.4887 62.5486 33.364 63.2512 33.364C64.4526 33.364 65.3989 33.6643 66.0902 34.265C66.7816 34.8657 67.1272 35.7157 67.1272 36.815V42H65.2742L65.0702 40.64C64.8209 41.0933 64.4696 41.4673 64.0162 41.762C63.5742 42.0567 63.0019 42.204 62.2992 42.204ZM62.7922 40.504C63.4156 40.504 63.8972 40.3 64.2372 39.892C64.5886 39.484 64.8096 38.9797 64.9002 38.379H63.0472C62.4692 38.379 62.0556 38.4867 61.8062 38.702C61.5569 38.906 61.4322 39.161 61.4322 39.467C61.4322 39.7957 61.5569 40.0507 61.8062 40.232C62.0556 40.4133 62.3842 40.504 62.7922 40.504ZM68.7766 42V33.568H70.7146L70.9186 35.149C71.2246 34.605 71.6383 34.1743 72.1596 33.857C72.6923 33.5283 73.3156 33.364 74.0296 33.364V35.659H73.4176C72.9416 35.659 72.5166 35.7327 72.1426 35.88C71.7686 36.0273 71.4739 36.2823 71.2586 36.645C71.0546 37.0077 70.9526 37.512 70.9526 38.158V42H68.7766ZM75.0896 42V33.568H77.0106L77.1806 34.996C77.4413 34.4973 77.8153 34.1007 78.3026 33.806C78.8013 33.5113 79.385 33.364 80.0536 33.364C81.0963 33.364 81.9066 33.6927 82.4846 34.35C83.0626 35.0073 83.3516 35.9707 83.3516 37.24V42H81.1756V37.444C81.1756 36.7187 81.0283 36.1633 80.7336 35.778C80.439 35.3927 79.98 35.2 79.3566 35.2C78.7446 35.2 78.2403 35.4153 77.8436 35.846C77.4583 36.2767 77.2656 36.8773 77.2656 37.648V42H75.0896ZM88.6288 42V33.568H90.5498L90.7368 34.707C91.0088 34.299 91.3658 33.976 91.8078 33.738C92.2612 33.4887 92.7825 33.364 93.3718 33.364C94.6752 33.364 95.5988 33.8683 96.1428 34.877C96.4488 34.4123 96.8568 34.044 97.3668 33.772C97.8882 33.5 98.4548 33.364 99.0668 33.364C100.166 33.364 101.011 33.6927 101.6 34.35C102.189 35.0073 102.484 35.9707 102.484 37.24V42H100.308V37.444C100.308 36.7187 100.166 36.1633 99.8828 35.778C99.6108 35.3927 99.1858 35.2 98.6078 35.2C98.0185 35.2 97.5425 35.4153 97.1798 35.846C96.8285 36.2767 96.6528 36.8773 96.6528 37.648V42H94.4768V37.444C94.4768 36.7187 94.3352 36.1633 94.0518 35.778C93.7685 35.3927 93.3322 35.2 92.7428 35.2C92.1648 35.2 91.6945 35.4153 91.3318 35.846C90.9805 36.2767 90.8048 36.8773 90.8048 37.648V42H88.6288ZM108.169 42.204C107.353 42.204 106.616 42.017 105.959 41.643C105.313 41.269 104.797 40.7533 104.412 40.096C104.038 39.4273 103.851 38.6567 103.851 37.784C103.851 36.9113 104.043 36.1463 104.429 35.489C104.814 34.8203 105.33 34.299 105.976 33.925C106.633 33.551 107.37 33.364 108.186 33.364C108.99 33.364 109.716 33.551 110.362 33.925C111.019 34.299 111.535 34.8203 111.909 35.489C112.294 36.1463 112.487 36.9113 112.487 37.784C112.487 38.6567 112.294 39.4273 111.909 40.096C111.535 40.7533 111.019 41.269 110.362 41.643C109.704 42.017 108.973 42.204 108.169 42.204ZM108.169 40.317C108.735 40.317 109.228 40.1073 109.648 39.688C110.067 39.2573 110.277 38.6227 110.277 37.784C110.277 36.9453 110.067 36.3163 109.648 35.897C109.228 35.4663 108.741 35.251 108.186 35.251C107.608 35.251 107.109 35.4663 106.69 35.897C106.282 36.3163 106.078 36.9453 106.078 37.784C106.078 38.6227 106.282 39.2573 106.69 39.688C107.109 40.1073 107.602 40.317 108.169 40.317ZM114.005 42V33.568H115.943L116.147 35.149C116.453 34.605 116.867 34.1743 117.388 33.857C117.921 33.5283 118.544 33.364 119.258 33.364V35.659H118.646C118.17 35.659 117.745 35.7327 117.371 35.88C116.997 36.0273 116.702 36.2823 116.487 36.645C116.283 37.0077 116.181 37.512 116.181 38.158V42H114.005ZM124.266 42.204C123.416 42.204 122.662 42.0227 122.005 41.66C121.347 41.2973 120.832 40.7873 120.458 40.13C120.084 39.4727 119.897 38.7133 119.897 37.852C119.897 36.9793 120.078 36.203 120.441 35.523C120.815 34.843 121.325 34.316 121.971 33.942C122.628 33.5567 123.399 33.364 124.283 33.364C125.11 33.364 125.841 33.5453 126.476 33.908C127.11 34.2707 127.603 34.7693 127.955 35.404C128.317 36.0273 128.499 36.7243 128.499 37.495C128.499 37.6197 128.493 37.75 128.482 37.886C128.482 38.022 128.476 38.1637 128.465 38.311H122.056C122.101 38.9683 122.328 39.484 122.736 39.858C123.155 40.232 123.659 40.419 124.249 40.419C124.691 40.419 125.059 40.3227 125.354 40.13C125.66 39.926 125.886 39.6653 126.034 39.348H128.244C128.085 39.8807 127.819 40.368 127.445 40.81C127.082 41.2407 126.629 41.5807 126.085 41.83C125.552 42.0793 124.946 42.204 124.266 42.204ZM124.283 35.132C123.75 35.132 123.28 35.285 122.872 35.591C122.464 35.8857 122.203 36.339 122.09 36.951H126.289C126.255 36.3957 126.051 35.9537 125.677 35.625C125.303 35.2963 124.838 35.132 124.283 35.132Z" fill="white"/>
<path d="M168.756 36.2257L164.774 32.244C164.536 32.0058 164.177 31.9345 163.866 32.0634C163.555 32.1924 163.352 32.4962 163.352 32.8332V35.3565C163.352 35.4716 163.258 35.5648 163.143 35.5648H150.25C149.56 35.5648 149 36.1245 149 36.8148C149 37.5052 149.56 38.0648 150.25 38.0648H163.143C163.258 38.0648 163.352 38.1581 163.352 38.2732V40.7965C163.352 41.1335 163.555 41.4373 163.866 41.5662C164.177 41.6952 164.536 41.6239 164.774 41.3857L168.756 37.404C169.081 37.0786 169.081 36.5511 168.756 36.2257Z" fill="#FFAC12"/>
</g>
<defs>
<clipPath id="clip0_0_412">
<rect width="129" height="22" fill="white" transform="translate(40 25)"/>
</clipPath>
</defs>
</svg>
