<svg width="211" height="50" viewBox="0 0 211 50" fill="none" xmlns="http://www.w3.org/2000/svg">
<path d="M0 0H193C202.941 0 211 8.05888 211 18V50H0V0Z" fill="#FFAC12"/>
<g clip-path="url(#clip0_0_112)">
<path d="M43.57 31L40.425 19.1H42.754L44.896 28.569L47.412 19.1H49.809L52.257 28.569L54.399 19.1H56.745L53.515 31H50.931L48.568 22.177L46.137 31H43.57ZM60.9934 31.204C60.1774 31.204 59.4407 31.017 58.7834 30.643C58.1374 30.269 57.6217 29.7533 57.2364 29.096C56.8624 28.4273 56.6754 27.6567 56.6754 26.784C56.6754 25.9113 56.868 25.1463 57.2534 24.489C57.6387 23.8203 58.1544 23.299 58.8004 22.925C59.4577 22.551 60.1944 22.364 61.0104 22.364C61.815 22.364 62.5404 22.551 63.1864 22.925C63.8437 23.299 64.3594 23.8203 64.7334 24.489C65.1187 25.1463 65.3114 25.9113 65.3114 26.784C65.3114 27.6567 65.1187 28.4273 64.7334 29.096C64.3594 29.7533 63.8437 30.269 63.1864 30.643C62.529 31.017 61.798 31.204 60.9934 31.204ZM60.9934 29.317C61.56 29.317 62.053 29.1073 62.4724 28.688C62.8917 28.2573 63.1014 27.6227 63.1014 26.784C63.1014 25.9453 62.8917 25.3163 62.4724 24.897C62.053 24.4663 61.5657 24.251 61.0104 24.251C60.4324 24.251 59.9337 24.4663 59.5144 24.897C59.1064 25.3163 58.9024 25.9453 58.9024 26.784C58.9024 27.6227 59.1064 28.2573 59.5144 28.688C59.9337 29.1073 60.4267 29.317 60.9934 29.317ZM66.8297 31V22.568H68.7677L68.9717 24.149C69.2777 23.605 69.6914 23.1743 70.2127 22.857C70.7454 22.5283 71.3687 22.364 72.0827 22.364V24.659H71.4707C70.9947 24.659 70.5697 24.7327 70.1957 24.88C69.8217 25.0273 69.5271 25.2823 69.3117 25.645C69.1077 26.0077 69.0057 26.512 69.0057 27.158V31H66.8297ZM73.1428 31V18.76H75.3188V25.985L78.3108 22.568H80.8948L77.4438 26.41L81.4558 31H78.7358L75.3188 26.767V31H73.1428ZM87.6503 31L85.1853 22.568H87.3443L88.8063 28.637L90.5063 22.568H92.9203L94.6203 28.637L96.0993 22.568H98.2583L95.7763 31H93.5153L91.7133 24.693L89.9113 31H87.6503ZM100.377 21.259C99.9804 21.259 99.6517 21.14 99.391 20.902C99.1417 20.664 99.017 20.3637 99.017 20.001C99.017 19.6383 99.1417 19.3437 99.391 19.117C99.6517 18.879 99.9804 18.76 100.377 18.76C100.774 18.76 101.097 18.879 101.346 19.117C101.607 19.3437 101.737 19.6383 101.737 20.001C101.737 20.3637 101.607 20.664 101.346 20.902C101.097 21.14 100.774 21.259 100.377 21.259ZM99.289 31V22.568H101.465V31H99.289ZM107.066 31C106.182 31 105.474 30.7847 104.941 30.354C104.408 29.9233 104.142 29.1583 104.142 28.059V24.387H102.697V22.568H104.142L104.397 20.307H106.318V22.568H108.596V24.387H106.318V28.076C106.318 28.484 106.403 28.7673 106.573 28.926C106.754 29.0733 107.06 29.147 107.491 29.147H108.545V31H107.066ZM110.037 31V18.76H112.213V23.86C112.497 23.3953 112.876 23.0327 113.352 22.772C113.84 22.5 114.395 22.364 115.018 22.364C116.061 22.364 116.866 22.6927 117.432 23.35C118.01 24.0073 118.299 24.9707 118.299 26.24V31H116.14V26.444C116.14 25.7187 115.993 25.1633 115.698 24.778C115.415 24.3927 114.962 24.2 114.338 24.2C113.726 24.2 113.216 24.4153 112.808 24.846C112.412 25.2767 112.213 25.8773 112.213 26.648V31H110.037ZM126.738 31.204C125.684 31.204 124.868 30.8753 124.29 30.218C123.724 29.5607 123.44 28.5973 123.44 27.328V22.568H125.599V27.124C125.599 27.8493 125.747 28.4047 126.041 28.79C126.336 29.1753 126.801 29.368 127.435 29.368C128.036 29.368 128.529 29.1527 128.914 28.722C129.311 28.2913 129.509 27.6907 129.509 26.92V22.568H131.685V31H129.764L129.594 29.572C129.334 30.0707 128.954 30.4673 128.455 30.762C127.968 31.0567 127.396 31.204 126.738 31.204ZM136.977 31.204C136.229 31.204 135.572 31.085 135.005 30.847C134.438 30.5977 133.985 30.2577 133.645 29.827C133.305 29.3963 133.101 28.8977 133.033 28.331H135.226C135.294 28.6597 135.475 28.943 135.77 29.181C136.076 29.4077 136.467 29.521 136.943 29.521C137.419 29.521 137.765 29.4247 137.98 29.232C138.207 29.0393 138.32 28.8183 138.32 28.569C138.32 28.2063 138.161 27.9627 137.844 27.838C137.527 27.702 137.085 27.5717 136.518 27.447C136.155 27.3677 135.787 27.2713 135.413 27.158C135.039 27.0447 134.693 26.903 134.376 26.733C134.07 26.5517 133.821 26.325 133.628 26.053C133.435 25.7697 133.339 25.424 133.339 25.016C133.339 24.268 133.634 23.639 134.223 23.129C134.824 22.619 135.662 22.364 136.739 22.364C137.736 22.364 138.53 22.5963 139.119 23.061C139.72 23.5257 140.077 24.166 140.19 24.982H138.133C138.008 24.3587 137.538 24.047 136.722 24.047C136.314 24.047 135.997 24.1263 135.77 24.285C135.555 24.4437 135.447 24.642 135.447 24.88C135.447 25.1293 135.611 25.3277 135.94 25.475C136.269 25.6223 136.705 25.7583 137.249 25.883C137.838 26.019 138.377 26.172 138.864 26.342C139.363 26.5007 139.759 26.7443 140.054 27.073C140.349 27.3903 140.496 27.8493 140.496 28.45C140.507 28.9713 140.371 29.4417 140.088 29.861C139.805 30.2803 139.397 30.609 138.864 30.847C138.331 31.085 137.702 31.204 136.977 31.204Z" fill="black"/>
<path d="M170.756 25.2257L166.774 21.244C166.536 21.0058 166.177 20.9345 165.866 21.0634C165.555 21.1924 165.352 21.4962 165.352 21.8332V24.3565C165.352 24.4716 165.258 24.5648 165.143 24.5648H152.25C151.56 24.5648 151 25.1245 151 25.8148C151 26.5052 151.56 27.0648 152.25 27.0648H165.143C165.258 27.0648 165.352 27.1581 165.352 27.2732V29.7965C165.352 30.1335 165.555 30.4373 165.866 30.5662C166.177 30.6952 166.536 30.6239 166.774 30.3857L170.756 26.404C171.081 26.0786 171.081 25.5511 170.756 25.2257Z" fill="white"/>
</g>
<defs>
<clipPath id="clip0_0_112">
<rect width="131" height="22" fill="white" transform="translate(40 14)"/>
</clipPath>
</defs>
</svg>
